<svg width="86" height="86" viewBox="0 0 86 86" fill="none" xmlns="http://www.w3.org/2000/svg">
<circle cx="43" cy="43" r="42.5" stroke="#E9E00C" stroke-opacity="0.9"/>
<path fill-rule="evenodd" clip-rule="evenodd" d="M43.5 30C43.9144 30 44.3118 30.1646 44.6049 30.4576C44.8979 30.7507 45.0625 31.1481 45.0625 31.5625V40.9375H54.4375C54.8519 40.9375 55.2493 41.1021 55.5424 41.3951C55.8354 41.6882 56 42.0856 56 42.5C56 42.9144 55.8354 43.3118 55.5424 43.6049C55.2493 43.8979 54.8519 44.0625 54.4375 44.0625H45.0625V53.4375C45.0625 53.8519 44.8979 54.2493 44.6049 54.5424C44.3118 54.8354 43.9144 55 43.5 55C43.0856 55 42.6882 54.8354 42.3951 54.5424C42.1021 54.2493 41.9375 53.8519 41.9375 53.4375V44.0625H32.5625C32.1481 44.0625 31.7507 43.8979 31.4576 43.6049C31.1646 43.3118 31 42.9144 31 42.5C31 42.0856 31.1646 41.6882 31.4576 41.3951C31.7507 41.1021 32.1481 40.9375 32.5625 40.9375H41.9375V31.5625C41.9375 31.1481 42.1021 30.7507 42.3951 30.4576C42.6882 30.1646 43.0856 30 43.5 30Z" fill="#E9E00C" fill-opacity="0.9"/>
</svg>
